# xmcd
# Track frame offsets:
# 150
# 12697
# 26769
# 40107
# 53602
# 66759
# 82878
# 96260
# 113604
# 127000
# 140274
# 154841
# 169014
# 184151
# 198516
# 213524
# 227124
#
# Disc length: 3235 seconds
# Revision: 0
# Processed by: cddbd v1.5.2PL0 Copyright (c) Steve Scherf et al.
# Submitted via: VisiTrax 2.11.2.271 - For more info visit www.synapsa.com
#
DISCID=e70ca111
DTITLE=Various Artist - Promo Country August 2014
DYEAR=2014
DGENRE=Country
TTITLE0=Miranda Lampert w/ Carrie Underwood - Somethin Bad
TTITLE1=Joey Hyde - Get It On
TTITLE2=Joe Bachman - Lookatchu
TTITLE3=Tyler Barham - More Than A Cotton Dress
TTITLE4=Craig Morgan - We'll Come Back Around
TTITLE5=Branch and Dean - Glad She's Not An Angel
TTITLE6=Rascal Flatts - Payback
TTITLE7=Keith Urban - Somewhere In My Car
TTITLE8=Thompson Square - I Can't Outrun You
TTITLE9=Little Big Town - Day Drinking
TTITLE10=Hunter Hayes - Tattoo
TTITLE11=Sam Hunt - Leave The Night On
TTITLE12=Jana Kramer - Love
TTITLE13=Sheryl Crow - Shotgun
TTITLE14=ArianaHodes - Brand New Key
TTITLE15=Kenny Chesney - American Kids
TTITLE16=Gwen Sebastian - Small Town Soul
EXTD=
EXTT0=
EXTT1=
EXTT2=
EXTT3=
EXTT4=
EXTT5=
EXTT6=
EXTT7=
EXTT8=
EXTT9=
EXTT10=
EXTT11=
EXTT12=
EXTT13=
EXTT14=
EXTT15=
EXTT16=
PLAYORDER=
